<?xml version="1.0" standalone="no"?>
<!DOCTYPE svg PUBLIC "-//W3C//DTD SVG 20010904//EN" "http://www.w3.org/TR/2001/REC-SVG-20010904/DTD/svg10.dtd">
<svg version="1.0" xmlns="http://www.w3.org/2000/svg" width="500.000000pt" height="500.000000pt"
	viewBox="0 0 500.000000 500.000000" preserveAspectRatio="xMidYMid meet" id="logo-spark">

	<g transform="translate(0.000000,500.000000) scale(0.100000,-0.100000)" fill="#000000" stroke="none">
		<path d="M0 2500 l0 -2500 2500 0 2500 0 0 2500 0 2500 -2500 0 -2500 0 0
-2500z m2714 826 c95 -25 194 -69 203 -92 3 -9 -69 -161 -103 -216 -3 -4 -15
-1 -27 6 -30 20 -137 59 -143 53 -16 -16 102 -73 208 -101 37 -10 66 -22 63
-26 -2 -4 -22 -10 -44 -14 -63 -10 -175 -55 -211 -84 l-32 -27 86 -44 c97 -49
182 -124 216 -191 31 -60 37 -156 16 -237 -36 -142 -134 -229 -302 -269 -103
-24 -274 -15 -378 20 -77 26 -202 92 -224 118 -8 10 5 40 56 126 37 61 71 112
75 112 5 0 23 -11 40 -24 18 -14 68 -42 112 -63 72 -34 88 -38 161 -38 119 0
164 33 164 120 0 53 -37 83 -208 167 -212 105 -289 187 -300 324 -9 113 30
217 106 286 125 113 272 143 466 94z" />
	</g>
</svg>